<?xml version="1.0" encoding="UTF-8"?>
<svg id="Ebene_2" data-name="Ebene 2" xmlns="http://www.w3.org/2000/svg" viewBox="0 0 33.11 33.63">
  <defs>
    <style>
      .cls-1 {
        fill: #fff;
      }
    </style>
  </defs>
  <g id="Layer_1" data-name="Layer 1">
    <path class="cls-1" d="m29.1,0c-1.22,0-2.2.99-2.2,2.2v1.48c-.57-.44-1.29-.71-2.06-.71-1.78,0-3.24,1.39-3.36,3.15h-4.66c-.11-1.76-1.57-3.15-3.36-3.15-1.11,0-2.1.55-2.71,1.38-.61-.84-1.6-1.38-2.72-1.38-.78,0-1.49.27-2.06.71v-1.48c0-1.22-.99-2.2-2.2-2.2S1.55.99,1.55,2.2v25.43c-.93.57-1.55,1.59-1.55,2.76,0,1.79,1.45,3.24,3.24,3.24h26.63c1.79,0,3.24-1.45,3.24-3.24,0-1.27-.74-2.37-1.81-2.9V2.2c0-1.22-.99-2.2-2.2-2.2Zm-.9,13.58V2.2c0-.5.4-.9.9-.9s.9.4.9.9v24.95s-.08,0-.12,0h-1.67v-13.57Zm-3.37-9.3c1.14,0,2.06.93,2.06,2.06s-.93,2.06-2.06,2.06-2.06-.93-2.06-2.06.93-2.06,2.06-2.06Zm-11.38,0c1.14,0,2.06.93,2.06,2.06s-.93,2.06-2.06,2.06-2.06-.93-2.06-2.06.93-2.06,2.06-2.06Zm-2.71,4.05c.61.84,1.6,1.38,2.71,1.38,1.71,0,3.12-1.28,3.34-2.93h4.71c.21,1.65,1.63,2.93,3.34,2.93.78,0,1.49-.27,2.06-.71v1.93c-.57-.44-1.29-.71-2.06-.71-1.29,0-2.41.73-2.97,1.79-.57-1.06-1.69-1.79-2.97-1.79-1.78,0-3.24,1.4-3.36,3.15H5.96v-4.37c.57.44,1.29.71,2.06.71,1.12,0,2.1-.55,2.72-1.38Zm8.14,16.64c1.75,0,3.19-1.34,3.35-3.04h4.66v5.23H5.96v-2.9c.57.44,1.29.71,2.06.71,1.75,0,3.19-1.34,3.35-3.04h4.16c.16,1.7,1.6,3.04,3.35,3.04Zm-2.06-3.37c0-1.14.93-2.06,2.06-2.06s2.06.93,2.06,2.06-.93,2.06-2.06,2.06-2.06-.93-2.06-2.06Zm5.41-.33c-.16-1.7-1.6-3.04-3.35-3.04s-3.19,1.34-3.35,3.04h-4.16c-.16-1.7-1.6-3.04-3.35-3.04-.78,0-1.49.27-2.06.71v-4.92h9.59c.21,1.65,1.63,2.93,3.34,2.93,1.29,0,2.41-.73,2.97-1.79.57,1.06,1.69,1.79,2.97,1.79.78,0,1.49-.27,2.06-.71v5.03h-4.66Zm-5.41-7.69c0-1.14.93-2.06,2.06-2.06s2.06.93,2.06,2.06-.93,2.06-2.06,2.06-2.06-.93-2.06-2.06Zm8.01,2.06c-1.14,0-2.06-.93-2.06-2.06s.93-2.06,2.06-2.06,2.06.93,2.06,2.06-.93,2.06-2.06,2.06ZM8.02,4.28c1.14,0,2.06.92,2.06,2.06h0c0,1.14-.93,2.07-2.06,2.07s-2.06-.93-2.06-2.06.93-2.06,2.06-2.06Zm0,15.26c1.14,0,2.06.93,2.06,2.06s-.93,2.06-2.06,2.06-2.06-.93-2.06-2.06.93-2.06,2.06-2.06ZM2.86,2.2c0-.5.4-.9.9-.9s.9.4.9.9v4.13s0,0,0,0c0,0,0,0,0,0v15.24s0,0,0,0,0,0,0,0v5.54h-1.42c-.13,0-.26.01-.38.02V2.2Zm28.95,28.18c0,1.07-.87,1.93-1.93,1.93H3.24c-1.07,0-1.93-.87-1.93-1.93s.87-1.93,1.93-1.93h26.63c1.07,0,1.93.87,1.93,1.93Z"/>
  </g>
</svg>