<?xml version="1.0" encoding="UTF-8"?>
<!DOCTYPE svg PUBLIC "-//W3C//DTD SVG 1.1//EN" "http://www.w3.org/Graphics/SVG/1.1/DTD/svg11.dtd">
<svg xmlns="http://www.w3.org/2000/svg" xmlns:xlink="http://www.w3.org/1999/xlink" version="1.1" width="211px" height="101px" viewBox="-0.5 -0.5 211 101"><defs/><g><ellipse cx="15" cy="15" rx="15" ry="15" fill="#ffffff" stroke="#ffffff" pointer-events="all"/><ellipse cx="15" cy="85" rx="15" ry="15" fill="#ffffff" stroke="#ffffff" pointer-events="all"/><ellipse cx="75" cy="50" rx="15" ry="15" fill="#ffffff" stroke="#ffffff" pointer-events="all"/><path d="M 30 15 L 75 15 L 75 26.88" fill="none" stroke="#ffffff" stroke-miterlimit="10" pointer-events="stroke"/><path d="M 75 33.88 L 72.67 26.88 L 77.33 26.88 Z" fill="#ffffff" stroke="#ffffff" stroke-miterlimit="10" pointer-events="all"/><path d="M 30 85 L 75 85 L 75 73.12" fill="none" stroke="#ffffff" stroke-miterlimit="10" pointer-events="stroke"/><path d="M 75 66.12 L 77.33 73.12 L 72.67 73.12 Z" fill="#ffffff" stroke="#ffffff" stroke-miterlimit="10" pointer-events="all"/><path d="M 90 50 L 101.88 50" fill="none" stroke="#ffffff" stroke-miterlimit="10" pointer-events="stroke"/><path d="M 108.88 50 L 101.88 52.33 L 101.88 47.67 Z" fill="#ffffff" stroke="#ffffff" stroke-miterlimit="10" pointer-events="all"/><rect x="110" y="35" width="30" height="30" fill="#ffffff" stroke="#ffffff" pointer-events="all"/><rect x="170" y="35" width="40" height="30" fill="#ffffff" stroke="#ffffff" pointer-events="all"/><path d="M 140 50 L 161.88 50" fill="none" stroke="#ffffff" stroke-miterlimit="10" pointer-events="stroke"/><path d="M 168.88 50 L 161.88 52.33 L 161.88 47.67 Z" fill="#ffffff" stroke="#ffffff" stroke-miterlimit="10" pointer-events="all"/></g></svg>