<?xml version="1.0" encoding="UTF-8"?>
<svg id="Ebene_2" data-name="Ebene 2" xmlns="http://www.w3.org/2000/svg" viewBox="0 0 27.68 30.64">
  <defs>
    <style>
      .cls-1 {
        fill: #fff;
      }
    </style>
  </defs>
  <g id="Layer_1" data-name="Layer 1">
    <g>
      <path class="cls-1" d="m6.36,27.57c1.25,0,2.26-.95,2.26-2.11v-15.51c0-1.17-1.01-2.11-2.26-2.11H2.26c-1.25,0-2.26.95-2.26,2.11v15.51c0,1.17,1.01,2.11,2.26,2.11h4.1Zm-5.24-2.11v-15.51c0-.54.51-.99,1.13-.99h4.1c.62,0,1.13.44,1.13.99v15.51c0,.55-.51.99-1.13.99H2.26c-.62,0-1.13-.44-1.13-.99Z"/>
      <path class="cls-1" d="m21.32,0c-1.25,0-2.26,1.24-2.26,2.77v22.04c0,1.53,1.01,2.77,2.26,2.77h4.1c1.25,0,2.26-1.24,2.26-2.77V2.77c0-1.53-1.01-2.77-2.26-2.77h-4.1Zm5.24,2.77v22.04c0,.89-.52,1.64-1.13,1.64h-4.1c-.61,0-1.13-.75-1.13-1.64V2.77c0-.89.52-1.64,1.13-1.64h4.1c.61,0,1.13.75,1.13,1.64Z"/>
      <path class="cls-1" d="m11.65,27.57h4.1c1.27,0,2.26-.7,2.26-1.59v-10.25c0-.89-.99-1.59-2.26-1.59h-4.1c-1.27,0-2.26.7-2.26,1.59v10.25c0,.89.99,1.59,2.26,1.59Zm-1.13-11.84c0-.14.43-.46,1.13-.46h4.1c.7,0,1.13.32,1.13.46v10.25c0,.14-.43.46-1.13.46h-4.1c-.7,0-1.13-.32-1.13-.46v-10.25Z"/>
      <path class="cls-1" d="m.99,29.61c0,.57.51,1.03,1.13,1.03h23.87c.62,0,1.13-.46,1.13-1.03s-.51-1.03-1.13-1.03H2.12c-.62,0-1.13.46-1.13,1.03Z"/>
    </g>
  </g>
</svg>