<?xml version="1.0" encoding="UTF-8"?>
<svg id="Ebene_2" data-name="Ebene 2" xmlns="http://www.w3.org/2000/svg" viewBox="0 0 28.74 31.67">
  <defs>
    <style>
      .cls-1 {
        fill: #fff;
      }
    </style>
  </defs>
  <g id="Layer_1" data-name="Layer 1">
    <g>
      <path class="cls-1" d="m.55,0h0c-.15,0-.29.06-.39.16-.1.1-.16.24-.16.39v30.5c0,.3.25.55.55.55l27.63.06h0c.15,0,.29-.06.39-.16s.16-.24.16-.39V.61c0-.3-.25-.55-.55-.55L.55,0Zm27.08,30.56l-26.53-.06V1.1l26.53.06v29.4Z"/>
      <path class="cls-1" d="m8.92,11.2c.72,0,1.39-.28,1.9-.78.51-.51.79-1.18.79-1.9,0-.72-.28-1.39-.78-1.9-.51-.51-1.18-.79-1.9-.79h0c-1.48,0-2.68,1.2-2.69,2.68,0,.72.28,1.39.78,1.9.51.51,1.18.79,1.9.79h0Zm-1.58-2.69c0-.87.71-1.58,1.58-1.58h0c.42,0,.82.17,1.12.46.3.3.46.7.46,1.12,0,.42-.17.82-.46,1.12-.3.3-.7.46-1.12.46h0c-.42,0-.82-.17-1.12-.46-.3-.3-.46-.7-.46-1.12Z"/>
      <path class="cls-1" d="m3.59,23.77h21.6c.3,0,.55-.25.55-.55V3.55c0-.31-.25-.55-.55-.55H3.55c-.31,0-.55.25-.55.55v19.53c0,.07.01.13.04.19.02.28.26.5.55.5Zm21.05-1.25v.14H4.14v-3.64l3.42-4.23,4.15,3.53c.12.1.27.15.42.13.15-.02.29-.09.38-.21l5.66-7.42,6.47,6.28v5.43ZM4.11,4.1h20.53v11.45l-6.15-5.96c-.11-.11-.27-.17-.43-.15-.16.01-.3.09-.4.22l-5.68,7.45-4.14-3.52c-.11-.1-.26-.14-.41-.13-.15.01-.28.09-.38.2l-2.95,3.65V4.1Z"/>
    </g>
  </g>
</svg>