<?xml version="1.0" encoding="UTF-8"?>
<svg id="Ebene_2" data-name="Ebene 2" xmlns="http://www.w3.org/2000/svg" viewBox="0 0 42.2 36.25">
  <defs>
    <style>
      .cls-1 {
        fill: #fff;
      }
    </style>
  </defs>
  <g id="Layer_1" data-name="Layer 1">
    <g>
      <path class="cls-1" d="m21.26,20.56c-.2-.04-.41,0-.58.12-.17.12-.29.3-.33.5l-.66,3.45c-.08.42.2.83.62.91l1.33.25c.06.73.21,1.44.44,2.14l-1.12.76c-.17.12-.29.3-.33.5-.04.2,0,.41.12.59l1.97,2.9c.12.17.3.29.5.33.2.04.41,0,.58-.12l1.12-.76c.56.47,1.17.88,1.83,1.2l-.25,1.33c-.08.42.2.83.62.91l3.45.66s.1.02.15.02c.37,0,.69-.26.77-.63l.25-1.33c.73-.06,1.44-.21,2.14-.44l.76,1.12c.12.17.3.29.5.33s.41,0,.58-.12l2.9-1.97c.36-.24.45-.73.21-1.08l-.76-1.12c.47-.56.88-1.17,1.2-1.83l1.33.25c.42.08.83-.2.91-.62l.66-3.45c.04-.2,0-.41-.12-.58-.12-.17-.3-.29-.5-.33l-1.33-.25c-.06-.73-.21-1.45-.45-2.14l1.12-.76c.36-.24.45-.73.21-1.08l-1.97-2.9c-.12-.17-.3-.29-.5-.33-.2-.04-.41,0-.58.12l-1.12.76c-.56-.47-1.17-.88-1.83-1.2l.25-1.33c.08-.42-.2-.83-.62-.91l-3.45-.66c-.2-.04-.41,0-.58.12-.17.12-.29.3-.33.5l-.25,1.33c-.73.06-1.44.21-2.14.45l-.76-1.12c-.12-.17-.3-.29-.5-.33-.2-.04-.41,0-.58.12l-2.9,1.97c-.17.12-.29.3-.33.5-.04.2,0,.41.12.59l.76,1.12c-.47.56-.87,1.17-1.2,1.83l-1.33-.25Zm2.51,1.43c.37-.89.9-1.7,1.58-2.4.26-.27.29-.68.08-.98l-.67-.98,1.61-1.1.67.98c.21.31.6.42.94.28.9-.37,1.85-.57,2.81-.58.37,0,.68-.27.75-.63l.22-1.17,1.91.37-.22,1.17c-.07.36.12.72.47.87.89.37,1.7.9,2.4,1.58.27.26.68.29.98.08l.98-.67,1.1,1.61-.98.67c-.31.21-.42.6-.28.94.37.9.57,1.85.58,2.81,0,.37.27.68.63.75l1.17.22-.37,1.91-1.17-.22c-.36-.07-.72.12-.87.47-.37.89-.9,1.7-1.58,2.4-.26.27-.29.68-.08.98l.67.98-1.61,1.1-.67-.98c-.21-.3-.6-.42-.94-.28-.9.37-1.85.57-2.81.58-.37,0-.68.27-.75.63l-.22,1.17-1.91-.37.22-1.17c.07-.36-.13-.72-.47-.87-.89-.37-1.7-.9-2.4-1.58-.27-.26-.68-.29-.98-.08l-.98.67-1.1-1.61.98-.67c.31-.21.42-.6.28-.94-.37-.9-.57-1.85-.58-2.81,0-.37-.27-.68-.63-.75l-1.17-.22.37-1.92,1.16.22c.36.07.72-.12.87-.47Z"/>
      <path class="cls-1" d="m29.89,30.5h0c.35.07.71.1,1.05.1,2.64,0,5-1.87,5.51-4.56.58-3.04-1.42-5.98-4.46-6.56-1.47-.28-2.96.03-4.2.87-1.24.84-2.08,2.12-2.36,3.59-.28,1.47.03,2.96.87,4.21.84,1.24,2.12,2.07,3.59,2.36Zm-2.92-6.27c.2-1.06.81-1.98,1.7-2.59.68-.46,1.46-.7,2.27-.7.25,0,.51.02.77.07,2.19.42,3.64,2.54,3.22,4.74-.2,1.06-.81,1.98-1.7,2.59-.89.61-1.97.83-3.03.63h0c-1.06-.2-1.98-.81-2.59-1.7s-.83-1.97-.63-3.03Z"/>
      <path class="cls-1" d="m.51,14.58c.06.43.46.72.88.66l1.34-.19c.3.67.67,1.3,1.12,1.88l-.81,1.09c-.12.16-.18.37-.15.58.03.21.14.39.3.51l2.81,2.1c.34.26.83.19,1.09-.16l.81-1.09c.68.27,1.39.45,2.12.54l.19,1.34c.03.21.14.39.3.51.14.1.3.15.47.15.04,0,.07,0,.11,0l3.47-.5c.43-.06.72-.46.66-.88l-.19-1.34c.67-.3,1.3-.67,1.88-1.12l1.09.81c.35.26.83.19,1.09-.16l2.1-2.81c.26-.35.19-.83-.16-1.09l-1.09-.81c.26-.69.45-1.39.54-2.12l1.34-.19c.21-.03.39-.14.51-.3.12-.17.18-.38.15-.58l-.5-3.47c-.06-.43-.46-.72-.88-.66l-1.34.19c-.3-.67-.67-1.3-1.12-1.88l.81-1.09c.12-.17.18-.37.15-.58s-.14-.39-.3-.51l-2.81-2.11c-.16-.12-.37-.18-.58-.15-.21.03-.39.14-.51.3l-.81,1.09c-.68-.27-1.39-.45-2.12-.54l-.19-1.34c-.06-.43-.45-.72-.88-.66l-3.47.5c-.21.03-.39.14-.51.3-.12.17-.18.37-.15.58l.19,1.34c-.67.29-1.3.67-1.88,1.12l-1.09-.81c-.17-.12-.37-.18-.58-.15-.21.03-.39.14-.51.3l-2.1,2.81c-.12.17-.18.37-.15.58.03.2.14.39.3.51l1.09.81c-.27.68-.45,1.39-.54,2.12l-1.34.19c-.21.03-.39.14-.51.3-.12.17-.18.37-.15.58l.5,3.47ZM5.15,5.46c.3.22.71.21.98-.04.73-.64,1.56-1.14,2.47-1.46.35-.13.56-.48.51-.85l-.17-1.17,1.93-.28.17,1.17c.05.37.35.65.72.67.96.06,1.9.3,2.78.71.34.16.73.06.96-.24l.71-.95,1.56,1.17-.71.95c-.22.29-.21.71.04.98.64.73,1.14,1.56,1.47,2.47.13.35.48.56.84.51l1.17-.17.28,1.93-1.17.17c-.37.05-.64.35-.67.72-.06.96-.3,1.9-.71,2.78-.16.33-.06.73.24.96l.95.71-1.17,1.56-.95-.71c-.3-.22-.71-.21-.98.04-.73.64-1.56,1.13-2.47,1.46-.35.13-.56.48-.51.84l.17,1.18-1.93.28-.17-1.18c-.05-.37-.35-.64-.72-.67-.96-.06-1.9-.3-2.78-.71-.11-.05-.22-.07-.33-.07-.24,0-.47.11-.63.31l-.71.95-1.56-1.17.71-.95c.22-.3.21-.71-.04-.98-.64-.73-1.14-1.56-1.47-2.47-.13-.35-.48-.56-.84-.51l-1.17.17-.28-1.93,1.17-.17c.37-.05.64-.36.67-.72.06-.96.3-1.9.71-2.78.16-.34.06-.73-.24-.96l-.95-.71,1.17-1.56.95.71Z"/>
      <path class="cls-1" d="m11.26,16.87c.26,0,.53-.02.8-.06,3.06-.44,5.2-3.29,4.76-6.35-.44-3.06-3.29-5.2-6.35-4.76-3.06.44-5.19,3.29-4.75,6.35.4,2.79,2.81,4.81,5.55,4.81Zm4.01-6.19c.32,2.21-1.22,4.27-3.43,4.58-2.21.32-4.26-1.22-4.58-3.43-.32-2.21,1.22-4.26,3.43-4.58.19-.03.39-.04.58-.04,1.98,0,3.71,1.46,4,3.47Z"/>
    </g>
  </g>
</svg>